<?xml version="1.0" encoding="UTF-8"?>
<svg id="Ebene_1" data-name="Ebene 1" xmlns="http://www.w3.org/2000/svg" viewBox="0 0 772.192 769.241">
  <defs>
    <style>
      .cls-1 {
        fill: #fff;
      }

      .cls-1, .cls-2, .cls-3 {
        stroke-width: 20px;
      }

      .cls-1, .cls-2, .cls-3, .cls-4 {
        stroke: #000;
        stroke-miterlimit: 10;
      }

      .cls-2 {
        fill: none;
      }

      .cls-4 {
        stroke-width: 5.84px;
      }
    </style>
  </defs>
  <circle class="cls-3" cx="387.963" cy="384.34" r="7.085"/>
  <path class="cls-3" d="M387.968,58.886l-.002,283.4,.002-283.4Z"/>
  <line class="cls-3" x1="387.965" y1="426.678" x2="387.963" y2="710.078"/>
  <line class="cls-2" x1="345.83" y1="384.34" x2="62.362" y2="384.34"/>
  <line class="cls-2" x1="713.192" y1="384.34" x2="429.723" y2="384.34"/>
  <circle class="cls-4" cx="62.085" cy="384.34" r="7.085"/>
  <circle class="cls-4" cx="345.745" cy="384.34" r="7.085"/>
  <circle class="cls-4" cx="387.926" cy="426.539" r="7.085"/>
  <circle class="cls-4" cx="387.926" cy="709.943" r="7.085"/>
  <circle class="cls-4" cx="713.107" cy="384.34" r="7.085"/>
  <circle class="cls-4" cx="430.181" cy="384.34" r="7.085"/>
  <circle class="cls-4" cx="387.923" cy="342.191" r="7.085"/>
  <circle class="cls-4" cx="387.923" cy="59.085" r="7.085"/>
  <circle class="cls-1" cx="17.085" cy="384.34" r="7.085"/>
  <circle class="cls-1" cx="387.922" cy="752.156" r="7.085"/>
  <circle class="cls-1" cx="755.107" cy="384.34" r="7.085"/>
  <circle class="cls-1" cx="387.927" cy="17.085" r="7.085"/>
  <rect x="-9.148" y="183.274" width="412.346" height="20" rx="10" ry="10" transform="translate(-78.958 195.917) rotate(-44.998)"/>
  <rect x="372.267" y="565.253" width="412.346" height="20" rx="10" ry="10" transform="translate(-237.344 577.478) rotate(-44.998)"/>
  <rect x="187.025" y="369.08" width="20" height="412.346" rx="10" ry="10" transform="translate(-349.067 307.824) rotate(-45.002)"/>
  <rect x="568.474" y="-13.899" width="20" height="412.346" rx="10" ry="10" transform="translate(33.482 465.377) rotate(-45.002)"/>
  <path d="M516.749,497.046c.195,.21,.435,.469,.709,.767,19.847,21.531,45.004,53.84,41.608,57.219,0,0-3.976,3.958-57.574-41.241-.182-.153-.357-.314-.357-.314-.09-.08-.207-.191-.427-.41-24.542-24.546-49.084-49.091-73.625-73.637-4.777-4.778-5.06-12.239-.633-16.666h0c4.427-4.427,11.889-4.142,16.665,.636l73.634,73.645Z"/>
  <path d="M475.408,280.969l.544-.486c33.629-26.851,40.111-28.918,41.776-27.255,1.666,1.663,.973,9.512-25.798,43.221-.154,.194-.321,.382-.496,.557-17.142,17.144-34.284,34.288-51.426,51.432-3.337,3.337-9.63,2.454-14.057-1.973h0c-4.427-4.427-5.311-10.72-1.975-14.057l51.432-51.438Z"/>
</svg>